<svg width="798" height="171" viewBox="0 0 798 171" fill="none" xmlns="http://www.w3.org/2000/svg">
<path d="M470.25 86.8608L486.608 94.6944L462.646 120.96L437.072 104.602V52.7616L420.714 38.4768V104.602L387.536 121.19V52.992L370.947 38.4768V104.602L338 121.19V38.4768L358.506 27.4176L352.054 21.6576L382.928 0L404.125 19.8144L432.694 0L470.019 35.0208L470.25 35.2512V86.8608Z" fill="white"/>
<path d="M530.085 19.52L546.674 8L581.694 40.9472V67.2128L532.158 102.003V154.074L498.981 170.662V40.9472L487 29.6576L518.104 8.2304L530.085 19.52ZM548.747 84.4928V58.688L532.158 44.1728V96.0128L548.747 84.4928Z" fill="white"/>
<path d="M216 22.0491L222.799 26.6823V121.29L253.905 110.529V16.2202L242.686 8L216 22.0491Z" fill="white"/>
<path d="M320.799 22.0491L314 26.6823V121.29L283.991 110.529V16.2202L295.209 8L320.799 22.0491Z" fill="white"/>
<path d="M253.905 44.4511L229.598 55.5L239.509 74.0393L253.033 67.9139L283.119 80.9925L300.534 70.223L293.786 49.7835L283.991 57.5297L253.905 44.4511Z" fill="white"/>
<path d="M91.2384 7V86.7184L107.827 94.552L83.8656 120.818L61.7472 106.763L41.7024 120.818L8.7552 89.0224V38.3344L0 32.8048L23.7312 7L41.7024 21.7456V71.2816L58.2912 87.4096V21.976L91.2384 7Z" fill="white"/>
<path d="M729.238 8V87.7184L745.827 95.552L721.866 121.818L699.747 107.763L679.702 121.818L646.755 90.0224V39.3344L638 33.8048L661.731 8L679.702 22.7456V72.2816L696.291 88.4096V22.976L729.238 8Z" fill="white"/>
<path d="M152.947 71.1936V71.424L182.669 99.9936L152.947 120.96L120 88.9344V38.2464L142.579 26.9568L136.589 21.4272L167.693 0L210.778 40.32L152.947 71.1936ZM152.947 35.9424V65.8944L174.144 54.6048L152.947 35.9424Z" fill="white"/>
<path d="M754 108.521L771.219 88C774.757 93.1893 777.942 96.8848 780.772 99.0863C783.681 101.209 786.669 102.271 789.736 102.271C790.522 102.271 791.465 102.113 792.566 101.799C793.746 101.484 795.24 101.013 797.048 100.384C793.51 107.617 789.932 112.807 786.315 115.952C782.777 119.097 778.689 120.669 774.05 120.669C770.197 120.669 766.541 119.608 763.081 117.485C759.622 115.441 756.595 112.453 754 108.521Z" fill="white"/>
</svg>
